<svg xmlns="http://www.w3.org/2000/svg" height="20" fill="white" width="20"><path d="M5.583 18.104q-.604 0-1.021-.427-.416-.427-.416-1.01 0-.605.427-1.021.427-.417 1.01-.417.605 0 1.021.427.417.427.417 1.011 0 .604-.427 1.021-.427.416-1.011.416Zm8.813 0q-.604 0-1.021-.427-.417-.427-.417-1.01 0-.605.427-1.021.427-.417 1.011-.417.604 0 1.021.427.416.427.416 1.011 0 .604-.427 1.021-.427.416-1.01.416ZM5.833 5.833l1.25 3.042h6.084l1.166-3.042Zm-.937-2.021h10.812q.646 0 .969.532.323.531.031 1.094l-1.77 4.416q-.188.458-.626.761-.437.302-.958.302H7l-.708 1.229h9.854v2.021H5.833q-1.104 0-1.593-.886-.49-.885.031-1.739l1.021-1.688-2.521-5.979H.896V1.854h3.166Zm2.187 5.063h6.084Z"/></svg>